<svg width="34" height="33" viewBox="0 0 34 33" fill="none" xmlns="http://www.w3.org/2000/svg">
<g id="book-user">
<path id="Vector" d="M6.07043 26.787V6.29413C6.07043 5.38829 6.43028 4.51956 7.0708 3.87903C7.71133 3.23851 8.58007 2.87866 9.4859 2.87866H27.9294V30.2024H9.4859C8.58007 30.2024 7.71133 29.8426 7.0708 29.2021C6.43028 28.5615 6.07043 27.6928 6.07043 26.787ZM6.07043 26.787C6.07043 25.8811 6.43028 25.0124 7.0708 24.3719C7.71133 23.7313 8.58007 23.3715 9.4859 23.3715H27.9294" stroke="white" stroke-width="2.73238" stroke-linecap="round" stroke-linejoin="round"/>
<path id="Vector_2" d="M16.9999 13.8081C18.5089 13.8081 19.7323 12.5848 19.7323 11.0758C19.7323 9.56671 18.5089 8.34338 16.9999 8.34338C15.4908 8.34338 14.2675 9.56671 14.2675 11.0758C14.2675 12.5848 15.4908 13.8081 16.9999 13.8081Z" stroke="white" stroke-width="2.73238" stroke-linecap="round" stroke-linejoin="round"/>
<path id="Vector_3" d="M21.0984 17.9067C21.0984 16.8197 20.6666 15.7772 19.898 15.0085C19.1294 14.2399 18.0869 13.8081 16.9999 13.8081C15.9129 13.8081 14.8704 14.2399 14.1017 15.0085C13.3331 15.7772 12.9013 16.8197 12.9013 17.9067" stroke="white" stroke-width="2.73238" stroke-linecap="round" stroke-linejoin="round"/>
</g>
</svg>
