<svg width="34" height="34" viewBox="0 0 34 34" fill="none" xmlns="http://www.w3.org/2000/svg">
<g id="soup">
<path id="Vector" d="M16.9999 29.6246C20.2609 29.6246 23.3884 28.3292 25.6943 26.0233C28.0002 23.7174 29.2956 20.5899 29.2956 17.3289H4.70422C4.70422 20.5899 5.99966 23.7174 8.30555 26.0233C10.6114 28.3292 13.7389 29.6246 16.9999 29.6246Z" stroke="white" stroke-width="2.73238" stroke-linecap="round" stroke-linejoin="round"/>
<path id="Vector_2" d="M10.1689 29.6246H23.8308" stroke="white" stroke-width="2.73238" stroke-linecap="round" stroke-linejoin="round"/>
<path id="Vector_3" d="M27.2463 17.3289L30.6618 9.13177" stroke="white" stroke-width="2.73238" stroke-linecap="round" stroke-linejoin="round"/>
<path id="Vector_4" d="M22.806 5.03326C23.1749 5.16988 23.899 5.75734 23.8307 6.89128C23.7487 8.02522 22.5601 8.53071 22.4645 9.65098C22.3962 10.7166 22.929 11.3451 23.4618 11.8642" stroke="white" stroke-width="2.73238" stroke-linecap="round" stroke-linejoin="round"/>
<path id="Vector_5" d="M15.9753 5.03326C16.3441 5.16988 17.0682 5.75734 16.9862 6.89128C16.9179 8.02522 15.7157 8.53071 15.6474 9.65098C15.5654 10.7166 16.0982 11.3451 16.631 11.8642" stroke="white" stroke-width="2.73238" stroke-linecap="round" stroke-linejoin="round"/>
<path id="Vector_6" d="M9.14423 5.03326C9.51311 5.16988 10.2372 5.75734 10.1689 6.89128C10.0869 8.02522 8.89832 8.53071 8.80269 9.65098C8.73438 10.7166 9.26719 11.3451 9.81367 11.8642" stroke="white" stroke-width="2.73238" stroke-linecap="round" stroke-linejoin="round"/>
</g>
</svg>
