<svg width="34" height="34" viewBox="0 0 34 34" fill="none" xmlns="http://www.w3.org/2000/svg">
<g id="user-circle">
<path id="Vector" d="M16.9999 30.7794C24.5451 30.7794 30.6618 24.6628 30.6618 17.1176C30.6618 9.57232 24.5451 3.45569 16.9999 3.45569C9.45464 3.45569 3.33801 9.57232 3.33801 17.1176C3.33801 24.6628 9.45464 30.7794 16.9999 30.7794Z" stroke="white" stroke-width="2.73238" stroke-linecap="round" stroke-linejoin="round"/>
<path id="Vector_2" d="M16.9999 18.4837C19.2634 18.4837 21.0984 16.6488 21.0984 14.3852C21.0984 12.1216 19.2634 10.2866 16.9999 10.2866C14.7363 10.2866 12.9013 12.1216 12.9013 14.3852C12.9013 16.6488 14.7363 18.4837 16.9999 18.4837Z" stroke="white" stroke-width="2.73238" stroke-linecap="round" stroke-linejoin="round"/>
<path id="Vector_3" d="M10.1689 28.9515V26.6809C10.1689 25.9562 10.4568 25.2612 10.9692 24.7488C11.4817 24.2364 12.1767 23.9485 12.9013 23.9485H21.0984C21.8231 23.9485 22.5181 24.2364 23.0305 24.7488C23.543 25.2612 23.8308 25.9562 23.8308 26.6809V28.9515" stroke="white" stroke-width="2.73238" stroke-linecap="round" stroke-linejoin="round"/>
</g>
</svg>
